<?xml version="1.0" encoding="UTF-8" standalone="no"?>
<!DOCTYPE svg PUBLIC "-//W3C//DTD SVG 1.1//EN"
 "http://www.w3.org/Graphics/SVG/1.1/DTD/svg11.dtd">
<!-- Generated by graphviz version 2.40.1 (20161225.0304)
 -->
<!-- Title: controllers_diagram Pages: 1 -->
<svg width="492pt" height="432pt"
 viewBox="0.00 0.00 492.00 432.00" xmlns="http://www.w3.org/2000/svg" xmlns:xlink="http://www.w3.org/1999/xlink">
<g id="graph0" class="graph" transform="scale(1 1) rotate(0) translate(4 428)">
<title>controllers_diagram</title>
<polygon fill="transparent" stroke="transparent" points="-4,4 -4,-428 488,-428 488,4 -4,4"/>
<!-- _diagram_info -->
<g id="node1" class="node">
<title>_diagram_info</title>
<text text-anchor="start" x="278" y="-183.6" font-family="Times,serif" font-size="13.00" fill="#000000">Controllers diagram</text>
<text text-anchor="start" x="278" y="-169.6" font-family="Times,serif" font-size="13.00" fill="#000000">Date: May 20 2019 &#45; 16:23</text>
<text text-anchor="start" x="278" y="-155.6" font-family="Times,serif" font-size="13.00" fill="#000000">Migration version: 20190518175747</text>
<text text-anchor="start" x="278" y="-141.6" font-family="Times,serif" font-size="13.00" fill="#000000">Generated by RailRoady 1.5.3</text>
<text text-anchor="start" x="278" y="-127.6" font-family="Times,serif" font-size="13.00" fill="#000000">http://railroady.prestonlee.com</text>
</g>
<!-- ApplicationController -->
<g id="node2" class="node">
<title>ApplicationController</title>
<path fill="none" stroke="#000000" d="M282,-.5C282,-.5 394,-.5 394,-.5 400,-.5 406,-6.5 406,-12.5 406,-12.5 406,-82.5 406,-82.5 406,-88.5 400,-94.5 394,-94.5 394,-94.5 282,-94.5 282,-94.5 276,-94.5 270,-88.5 270,-82.5 270,-82.5 270,-12.5 270,-12.5 270,-6.5 276,-.5 282,-.5"/>
<text text-anchor="middle" x="338" y="-79.3" font-family="Times,serif" font-size="14.00" fill="#000000">ApplicationController</text>
<polyline fill="none" stroke="#000000" points="270,-71.5 406,-71.5 "/>
<polyline fill="none" stroke="#000000" points="270,-47.5 406,-47.5 "/>
<polyline fill="none" stroke="#000000" points="270,-23.5 406,-23.5 "/>
<text text-anchor="start" x="278" y="-8.3" font-family="Times,serif" font-size="14.00" fill="#000000">_layout</text>
</g>
<!-- UsersController -->
<g id="node3" class="node">
<title>UsersController</title>
<path fill="none" stroke="#000000" d="M282,-225.5C282,-225.5 361,-225.5 361,-225.5 367,-225.5 373,-231.5 373,-237.5 373,-237.5 373,-366.5 373,-366.5 373,-372.5 367,-378.5 361,-378.5 361,-378.5 282,-378.5 282,-378.5 276,-378.5 270,-372.5 270,-366.5 270,-366.5 270,-237.5 270,-237.5 270,-231.5 276,-225.5 282,-225.5"/>
<text text-anchor="middle" x="321.5" y="-363.3" font-family="Times,serif" font-size="14.00" fill="#000000">UsersController</text>
<polyline fill="none" stroke="#000000" points="270,-355.5 373,-355.5 "/>
<text text-anchor="start" x="278" y="-340.3" font-family="Times,serif" font-size="14.00" fill="#000000">followers</text>
<text text-anchor="start" x="278" y="-325.3" font-family="Times,serif" font-size="14.00" fill="#000000">following</text>
<text text-anchor="start" x="278" y="-310.3" font-family="Times,serif" font-size="14.00" fill="#000000">index</text>
<text text-anchor="start" x="278" y="-295.3" font-family="Times,serif" font-size="14.00" fill="#000000">show</text>
<polyline fill="none" stroke="#000000" points="270,-287.5 373,-287.5 "/>
<polyline fill="none" stroke="#000000" points="270,-263.5 373,-263.5 "/>
<text text-anchor="start" x="278" y="-248.3" font-family="Times,serif" font-size="14.00" fill="#000000">_layout</text>
<text text-anchor="start" x="278" y="-233.3" font-family="Times,serif" font-size="14.00" fill="#000000">find_user</text>
</g>
<!-- PagesController -->
<g id="node4" class="node">
<title>PagesController</title>
<path fill="none" stroke="#000000" d="M12,-15.5C12,-15.5 92,-15.5 92,-15.5 98,-15.5 104,-21.5 104,-27.5 104,-27.5 104,-96.5 104,-96.5 104,-102.5 98,-108.5 92,-108.5 92,-108.5 12,-108.5 12,-108.5 6,-108.5 0,-102.5 0,-96.5 0,-96.5 0,-27.5 0,-27.5 0,-21.5 6,-15.5 12,-15.5"/>
<text text-anchor="middle" x="52" y="-93.3" font-family="Times,serif" font-size="14.00" fill="#000000">PagesController</text>
<polyline fill="none" stroke="#000000" points="0,-85.5 104,-85.5 "/>
<text text-anchor="start" x="8" y="-70.3" font-family="Times,serif" font-size="14.00" fill="#000000">index</text>
<polyline fill="none" stroke="#000000" points="0,-62.5 104,-62.5 "/>
<polyline fill="none" stroke="#000000" points="0,-38.5 104,-38.5 "/>
<text text-anchor="start" x="8" y="-23.3" font-family="Times,serif" font-size="14.00" fill="#000000">_layout</text>
</g>
<!-- RelationshipsController -->
<g id="node5" class="node">
<title>RelationshipsController</title>
<path fill="none" stroke="#000000" d="M102,-315.5C102,-315.5 224,-315.5 224,-315.5 230,-315.5 236,-321.5 236,-327.5 236,-327.5 236,-411.5 236,-411.5 236,-417.5 230,-423.5 224,-423.5 224,-423.5 102,-423.5 102,-423.5 96,-423.5 90,-417.5 90,-411.5 90,-411.5 90,-327.5 90,-327.5 90,-321.5 96,-315.5 102,-315.5"/>
<text text-anchor="middle" x="163" y="-408.3" font-family="Times,serif" font-size="14.00" fill="#000000">RelationshipsController</text>
<polyline fill="none" stroke="#000000" points="90,-400.5 236,-400.5 "/>
<text text-anchor="start" x="98" y="-385.3" font-family="Times,serif" font-size="14.00" fill="#000000">create</text>
<text text-anchor="start" x="98" y="-370.3" font-family="Times,serif" font-size="14.00" fill="#000000">destroy</text>
<polyline fill="none" stroke="#000000" points="90,-362.5 236,-362.5 "/>
<polyline fill="none" stroke="#000000" points="90,-338.5 236,-338.5 "/>
<text text-anchor="start" x="98" y="-323.3" font-family="Times,serif" font-size="14.00" fill="#000000">_layout</text>
</g>
<!-- LikesController -->
<g id="node6" class="node">
<title>LikesController</title>
<path fill="none" stroke="#000000" d="M12,-135.5C12,-135.5 90,-135.5 90,-135.5 96,-135.5 102,-141.5 102,-147.5 102,-147.5 102,-276.5 102,-276.5 102,-282.5 96,-288.5 90,-288.5 90,-288.5 12,-288.5 12,-288.5 6,-288.5 0,-282.5 0,-276.5 0,-276.5 0,-147.5 0,-147.5 0,-141.5 6,-135.5 12,-135.5"/>
<text text-anchor="middle" x="51" y="-273.3" font-family="Times,serif" font-size="14.00" fill="#000000">LikesController</text>
<polyline fill="none" stroke="#000000" points="0,-265.5 102,-265.5 "/>
<text text-anchor="start" x="8" y="-250.3" font-family="Times,serif" font-size="14.00" fill="#000000">create</text>
<text text-anchor="start" x="8" y="-235.3" font-family="Times,serif" font-size="14.00" fill="#000000">destroy</text>
<text text-anchor="start" x="8" y="-220.3" font-family="Times,serif" font-size="14.00" fill="#000000">find_like</text>
<polyline fill="none" stroke="#000000" points="0,-212.5 102,-212.5 "/>
<polyline fill="none" stroke="#000000" points="0,-188.5 102,-188.5 "/>
<text text-anchor="start" x="8" y="-173.3" font-family="Times,serif" font-size="14.00" fill="#000000">_layout</text>
<text text-anchor="start" x="8" y="-158.3" font-family="Times,serif" font-size="14.00" fill="#000000">find_image</text>
<text text-anchor="start" x="8" y="-143.3" font-family="Times,serif" font-size="14.00" fill="#000000">liked?</text>
</g>
<!-- ImagesController -->
<g id="node7" class="node">
<title>ImagesController</title>
<path fill="none" stroke="#000000" d="M147,-75.5C147,-75.5 235,-75.5 235,-75.5 241,-75.5 247,-81.5 247,-87.5 247,-87.5 247,-276.5 247,-276.5 247,-282.5 241,-288.5 235,-288.5 235,-288.5 147,-288.5 147,-288.5 141,-288.5 135,-282.5 135,-276.5 135,-276.5 135,-87.5 135,-87.5 135,-81.5 141,-75.5 147,-75.5"/>
<text text-anchor="middle" x="191" y="-273.3" font-family="Times,serif" font-size="14.00" fill="#000000">ImagesController</text>
<polyline fill="none" stroke="#000000" points="135,-265.5 247,-265.5 "/>
<text text-anchor="start" x="143" y="-250.3" font-family="Times,serif" font-size="14.00" fill="#000000">create</text>
<text text-anchor="start" x="143" y="-235.3" font-family="Times,serif" font-size="14.00" fill="#000000">destroy</text>
<text text-anchor="start" x="143" y="-220.3" font-family="Times,serif" font-size="14.00" fill="#000000">edit</text>
<text text-anchor="start" x="143" y="-205.3" font-family="Times,serif" font-size="14.00" fill="#000000">index</text>
<text text-anchor="start" x="143" y="-190.3" font-family="Times,serif" font-size="14.00" fill="#000000">new</text>
<text text-anchor="start" x="143" y="-175.3" font-family="Times,serif" font-size="14.00" fill="#000000">show</text>
<text text-anchor="start" x="143" y="-160.3" font-family="Times,serif" font-size="14.00" fill="#000000">update</text>
<polyline fill="none" stroke="#000000" points="135,-152.5 247,-152.5 "/>
<polyline fill="none" stroke="#000000" points="135,-128.5 247,-128.5 "/>
<text text-anchor="start" x="143" y="-113.3" font-family="Times,serif" font-size="14.00" fill="#000000">_layout</text>
<text text-anchor="start" x="143" y="-98.3" font-family="Times,serif" font-size="14.00" fill="#000000">find_image</text>
<text text-anchor="start" x="143" y="-83.3" font-family="Times,serif" font-size="14.00" fill="#000000">image_params</text>
</g>
</g>
</svg>
