<?xml version="1.0" encoding="UTF-8" standalone="no"?>
<!DOCTYPE svg PUBLIC "-//W3C//DTD SVG 1.1//EN"
 "http://www.w3.org/Graphics/SVG/1.1/DTD/svg11.dtd">
<!-- Generated by graphviz version 2.40.1 (20161225.0304)
 -->
<!-- Title: models_diagram Pages: 1 -->
<svg width="753pt" height="477pt"
 viewBox="0.00 0.00 753.34 477.00" xmlns="http://www.w3.org/2000/svg" xmlns:xlink="http://www.w3.org/1999/xlink">
<g id="graph0" class="graph" transform="scale(1 1) rotate(0) translate(4 473)">
<title>models_diagram</title>
<polygon fill="transparent" stroke="transparent" points="-4,4 -4,-473 749.3431,-473 749.3431,4 -4,4"/>
<!-- _diagram_info -->
<g id="node1" class="node">
<title>_diagram_info</title>
<text text-anchor="start" x="8" y="-417.6" font-family="Times,serif" font-size="13.00" fill="#000000">Models diagram</text>
<text text-anchor="start" x="8" y="-403.6" font-family="Times,serif" font-size="13.00" fill="#000000">Date: May 20 2019 &#45; 16:23</text>
<text text-anchor="start" x="8" y="-389.6" font-family="Times,serif" font-size="13.00" fill="#000000">Migration version: 20190518175747</text>
<text text-anchor="start" x="8" y="-375.6" font-family="Times,serif" font-size="13.00" fill="#000000">Generated by RailRoady 1.5.3</text>
<text text-anchor="start" x="8" y="-361.6" font-family="Times,serif" font-size="13.00" fill="#000000">http://railroady.prestonlee.com</text>
</g>
<!-- User -->
<g id="node2" class="node">
<title>User</title>
<path fill="none" stroke="#000000" d="M244,-317.5C244,-317.5 420,-317.5 420,-317.5 426,-317.5 432,-323.5 432,-329.5 432,-329.5 432,-456.5 432,-456.5 432,-462.5 426,-468.5 420,-468.5 420,-468.5 244,-468.5 244,-468.5 238,-468.5 232,-462.5 232,-456.5 232,-456.5 232,-329.5 232,-329.5 232,-323.5 238,-317.5 244,-317.5"/>
<text text-anchor="middle" x="332" y="-453.3" font-family="Times,serif" font-size="14.00" fill="#000000">User</text>
<polyline fill="none" stroke="#000000" points="232,-445.5 432,-445.5 "/>
<text text-anchor="start" x="240" y="-430.3" font-family="Times,serif" font-size="14.00" fill="#000000">id :integer</text>
<text text-anchor="start" x="240" y="-415.3" font-family="Times,serif" font-size="14.00" fill="#000000">email :varchar</text>
<text text-anchor="start" x="240" y="-400.3" font-family="Times,serif" font-size="14.00" fill="#000000">encrypted_password :varchar</text>
<text text-anchor="start" x="240" y="-385.3" font-family="Times,serif" font-size="14.00" fill="#000000">reset_password_token :varchar</text>
<text text-anchor="start" x="240" y="-370.3" font-family="Times,serif" font-size="14.00" fill="#000000">reset_password_sent_at :datetime</text>
<text text-anchor="start" x="240" y="-355.3" font-family="Times,serif" font-size="14.00" fill="#000000">remember_created_at :datetime</text>
<text text-anchor="start" x="240" y="-340.3" font-family="Times,serif" font-size="14.00" fill="#000000">created_at :datetime</text>
<text text-anchor="start" x="240" y="-325.3" font-family="Times,serif" font-size="14.00" fill="#000000">updated_at :datetime</text>
</g>
<!-- User&#45;&gt;User -->
<g id="edge5" class="edge">
<title>User&#45;&gt;User</title>
<path fill="none" stroke="#df30c4" d="M442.2755,-398.7756C447.1546,-397.3025 450,-395.3773 450,-393 450,-390.6227 447.1546,-388.6975 442.2755,-387.2244"/>
<polygon fill="#df30c4" stroke="#df30c4" points="442.083,-398.815 431.3819,-396.4198 437.1854,-399.8214 432.2877,-400.8278 432.2877,-400.8278 432.2877,-400.8278 437.1854,-399.8214 433.1934,-405.2357 442.083,-398.815 442.083,-398.815"/>
<polygon fill="#df30c4" stroke="#df30c4" points="442.083,-387.185 433.1934,-380.7643 437.1854,-386.1786 432.2877,-385.1722 432.2877,-385.1722 432.2877,-385.1722 437.1854,-386.1786 431.3819,-389.5802 442.083,-387.185 442.083,-387.185"/>
<text text-anchor="middle" x="476.5" y="-389.3" font-family="Times,serif" font-size="14.00" fill="#000000">following</text>
</g>
<!-- User&#45;&gt;User -->
<g id="edge6" class="edge">
<title>User&#45;&gt;User</title>
<path fill="none" stroke="#325016" d="M442.4196,-411.6526C475.9484,-410.8167 503,-404.5992 503,-393 503,-381.4008 475.9484,-375.1833 442.4196,-374.3474"/>
<polygon fill="#325016" stroke="#325016" points="442.3205,-411.6534 432.2806,-407.243 437.3207,-411.6981 432.3209,-411.7428 432.3209,-411.7428 432.3209,-411.7428 437.3207,-411.6981 432.3611,-416.2427 442.3205,-411.6534 442.3205,-411.6534"/>
<polygon fill="#325016" stroke="#325016" points="442.3205,-374.3466 432.3611,-369.7573 437.3207,-374.3019 432.3209,-374.2572 432.3209,-374.2572 432.3209,-374.2572 437.3207,-374.3019 432.2806,-378.757 442.3205,-374.3466 442.3205,-374.3466"/>
<text text-anchor="middle" x="529" y="-389.3" font-family="Times,serif" font-size="14.00" fill="#000000">followers</text>
</g>
<!-- Relationship -->
<g id="node3" class="node">
<title>Relationship</title>
<path fill="none" stroke="#000000" d="M121.5,-152C121.5,-152 228.5,-152 228.5,-152 234.5,-152 240.5,-158 240.5,-164 240.5,-164 240.5,-246 240.5,-246 240.5,-252 234.5,-258 228.5,-258 228.5,-258 121.5,-258 121.5,-258 115.5,-258 109.5,-252 109.5,-246 109.5,-246 109.5,-164 109.5,-164 109.5,-158 115.5,-152 121.5,-152"/>
<text text-anchor="middle" x="175" y="-242.8" font-family="Times,serif" font-size="14.00" fill="#000000">Relationship</text>
<polyline fill="none" stroke="#000000" points="109.5,-235 240.5,-235 "/>
<text text-anchor="start" x="117.5" y="-219.8" font-family="Times,serif" font-size="14.00" fill="#000000">id :integer</text>
<text text-anchor="start" x="117.5" y="-204.8" font-family="Times,serif" font-size="14.00" fill="#000000">follower_id :integer</text>
<text text-anchor="start" x="117.5" y="-189.8" font-family="Times,serif" font-size="14.00" fill="#000000">followed_id :integer</text>
<text text-anchor="start" x="117.5" y="-174.8" font-family="Times,serif" font-size="14.00" fill="#000000">created_at :datetime</text>
<text text-anchor="start" x="117.5" y="-159.8" font-family="Times,serif" font-size="14.00" fill="#000000">updated_at :datetime</text>
</g>
<!-- User&#45;&gt;Relationship -->
<g id="edge3" class="edge">
<title>User&#45;&gt;Relationship</title>
<path fill="none" stroke="#df552b" d="M224.3907,-317.6049C223.9271,-317.4012 223.4635,-317.1995 223,-317 186.7313,-301.3894 160.9322,-329.6186 136,-299 128.4931,-289.781 127.627,-278.914 130.4293,-267.9023"/>
<ellipse fill="none" stroke="#df552b" cx="228.2656" cy="-319.3992" rx="4" ry="4"/>
<polygon fill="#df552b" stroke="#df552b" points="130.5055,-267.6809 138.0164,-259.6911 132.1336,-262.9534 133.7616,-258.2259 133.7616,-258.2259 133.7616,-258.2259 132.1336,-262.9534 129.5068,-256.7606 130.5055,-267.6809 130.5055,-267.6809"/>
<text text-anchor="middle" x="190.5" y="-287.8" font-family="Times,serif" font-size="14.00" fill="#000000">active_relationships</text>
</g>
<!-- User&#45;&gt;Relationship -->
<g id="edge4" class="edge">
<title>User&#45;&gt;Relationship</title>
<path fill="none" stroke="#c03af9" d="M267.234,-310.9213C259.8029,-301.7836 252.2815,-292.6565 245,-284 240.0236,-278.0839 234.7863,-271.9723 229.5093,-265.8902"/>
<ellipse fill="none" stroke="#c03af9" cx="269.8409" cy="-314.1364" rx="4" ry="4"/>
<polygon fill="#c03af9" stroke="#c03af9" points="229.3925,-265.7562 226.2123,-255.2616 226.1065,-261.9876 222.8205,-258.219 222.8205,-258.219 222.8205,-258.219 226.1065,-261.9876 219.4288,-261.1764 229.3925,-265.7562 229.3925,-265.7562"/>
<text text-anchor="middle" x="316" y="-287.8" font-family="Times,serif" font-size="14.00" fill="#000000">passive_relationships</text>
</g>
<!-- Image -->
<g id="node4" class="node">
<title>Image</title>
<path fill="none" stroke="#000000" d="M309.5,-144.5C309.5,-144.5 416.5,-144.5 416.5,-144.5 422.5,-144.5 428.5,-150.5 428.5,-156.5 428.5,-156.5 428.5,-253.5 428.5,-253.5 428.5,-259.5 422.5,-265.5 416.5,-265.5 416.5,-265.5 309.5,-265.5 309.5,-265.5 303.5,-265.5 297.5,-259.5 297.5,-253.5 297.5,-253.5 297.5,-156.5 297.5,-156.5 297.5,-150.5 303.5,-144.5 309.5,-144.5"/>
<text text-anchor="middle" x="363" y="-250.3" font-family="Times,serif" font-size="14.00" fill="#000000">Image</text>
<polyline fill="none" stroke="#000000" points="297.5,-242.5 428.5,-242.5 "/>
<text text-anchor="start" x="305.5" y="-227.3" font-family="Times,serif" font-size="14.00" fill="#000000">id :integer</text>
<text text-anchor="start" x="305.5" y="-212.3" font-family="Times,serif" font-size="14.00" fill="#000000">user_id :integer</text>
<text text-anchor="start" x="305.5" y="-197.3" font-family="Times,serif" font-size="14.00" fill="#000000">photos :varchar</text>
<text text-anchor="start" x="305.5" y="-182.3" font-family="Times,serif" font-size="14.00" fill="#000000">description :varchar</text>
<text text-anchor="start" x="305.5" y="-167.3" font-family="Times,serif" font-size="14.00" fill="#000000">created_at :datetime</text>
<text text-anchor="start" x="305.5" y="-152.3" font-family="Times,serif" font-size="14.00" fill="#000000">updated_at :datetime</text>
</g>
<!-- User&#45;&gt;Image -->
<g id="edge1" class="edge">
<title>User&#45;&gt;Image</title>
<path fill="none" stroke="#e16d74" d="M380.7843,-309.6536C382.0015,-306.1082 383.0836,-302.5495 384,-299 385.9544,-291.4295 386.4943,-283.4886 386.0712,-275.5652"/>
<ellipse fill="none" stroke="#e16d74" cx="379.3073" cy="-313.635" rx="4" ry="4"/>
<polygon fill="#e16d74" stroke="#e16d74" points="386.0663,-275.516 389.5312,-265.112 385.5603,-270.5417 385.0543,-265.5674 385.0543,-265.5674 385.0543,-265.5674 385.5603,-270.5417 380.5774,-266.0228 386.0663,-275.516 386.0663,-275.516"/>
</g>
<!-- Like -->
<g id="node5" class="node">
<title>Like</title>
<path fill="none" stroke="#000000" d="M356.5,-.5C356.5,-.5 463.5,-.5 463.5,-.5 469.5,-.5 475.5,-6.5 475.5,-12.5 475.5,-12.5 475.5,-94.5 475.5,-94.5 475.5,-100.5 469.5,-106.5 463.5,-106.5 463.5,-106.5 356.5,-106.5 356.5,-106.5 350.5,-106.5 344.5,-100.5 344.5,-94.5 344.5,-94.5 344.5,-12.5 344.5,-12.5 344.5,-6.5 350.5,-.5 356.5,-.5"/>
<text text-anchor="middle" x="410" y="-91.3" font-family="Times,serif" font-size="14.00" fill="#000000">Like</text>
<polyline fill="none" stroke="#000000" points="344.5,-83.5 475.5,-83.5 "/>
<text text-anchor="start" x="352.5" y="-68.3" font-family="Times,serif" font-size="14.00" fill="#000000">id :integer</text>
<text text-anchor="start" x="352.5" y="-53.3" font-family="Times,serif" font-size="14.00" fill="#000000">user_id :integer</text>
<text text-anchor="start" x="352.5" y="-38.3" font-family="Times,serif" font-size="14.00" fill="#000000">image_id :integer</text>
<text text-anchor="start" x="352.5" y="-23.3" font-family="Times,serif" font-size="14.00" fill="#000000">created_at :datetime</text>
<text text-anchor="start" x="352.5" y="-8.3" font-family="Times,serif" font-size="14.00" fill="#000000">updated_at :datetime</text>
</g>
<!-- User&#45;&gt;Like -->
<g id="edge2" class="edge">
<title>User&#45;&gt;Like</title>
<path fill="none" stroke="#d6b213" d="M413.951,-310.7126C423.7757,-296.7473 432.3226,-281.6623 438,-266 455.5295,-217.6411 445.9643,-159.5487 433.454,-116.3344"/>
<ellipse fill="none" stroke="#d6b213" cx="411.3851" cy="-314.241" rx="4" ry="4"/>
<polygon fill="#d6b213" stroke="#d6b213" points="433.3805,-116.091 434.796,-105.2168 431.9344,-111.3047 430.4883,-106.5183 430.4883,-106.5183 430.4883,-106.5183 431.9344,-111.3047 426.1806,-107.8198 433.3805,-116.091 433.3805,-116.091"/>
</g>
<!-- Image&#45;&gt;Like -->
<g id="edge7" class="edge">
<title>Image&#45;&gt;Like</title>
<path fill="none" stroke="#330afc" d="M384.289,-136.377C386.3003,-129.8937 388.3334,-123.3402 390.3287,-116.9086"/>
<ellipse fill="none" stroke="#330afc" cx="383.0311" cy="-140.4317" rx="4" ry="4"/>
<polygon fill="#330afc" stroke="#330afc" points="390.4613,-116.4808 397.7223,-108.2633 391.9429,-111.7054 393.4244,-106.9299 393.4244,-106.9299 393.4244,-106.9299 391.9429,-111.7054 389.1265,-105.5965 390.4613,-116.4808 390.4613,-116.4808"/>
</g>
<!-- ApplicationRecord -->
<g id="node6" class="node">
<title>ApplicationRecord</title>
<ellipse fill="none" stroke="#000000" cx="668" cy="-393" rx="77.1866" ry="18"/>
<text text-anchor="middle" x="668" y="-389.3" font-family="Times,serif" font-size="14.00" fill="#000000">ApplicationRecord</text>
</g>
</g>
</svg>
