<?xml version="1.0" encoding="UTF-8" standalone="no"?>
<!DOCTYPE svg PUBLIC "-//W3C//DTD SVG 1.1//EN"
 "http://www.w3.org/Graphics/SVG/1.1/DTD/svg11.dtd">
<!-- Generated by graphviz version 2.40.1 (20161225.0304)
 -->
<!-- Title: models_diagram Pages: 1 -->
<svg width="608pt" height="246pt"
 viewBox="0.00 0.00 608.34 246.00" xmlns="http://www.w3.org/2000/svg" xmlns:xlink="http://www.w3.org/1999/xlink">
<g id="graph0" class="graph" transform="scale(1 1) rotate(0) translate(4 242)">
<title>models_diagram</title>
<polygon fill="transparent" stroke="transparent" points="-4,4 -4,-242 604.3431,-242 604.3431,4 -4,4"/>
<!-- _diagram_info -->
<g id="node1" class="node">
<title>_diagram_info</title>
<text text-anchor="start" x="8" y="-223.6" font-family="Times,serif" font-size="13.00" fill="#000000">Models diagram</text>
<text text-anchor="start" x="8" y="-209.6" font-family="Times,serif" font-size="13.00" fill="#000000">Date: May 20 2019 &#45; 16:23</text>
<text text-anchor="start" x="8" y="-195.6" font-family="Times,serif" font-size="13.00" fill="#000000">Migration version: 20190518175747</text>
<text text-anchor="start" x="8" y="-181.6" font-family="Times,serif" font-size="13.00" fill="#000000">Generated by RailRoady 1.5.3</text>
<text text-anchor="start" x="8" y="-167.6" font-family="Times,serif" font-size="13.00" fill="#000000">http://railroady.prestonlee.com</text>
</g>
<!-- User -->
<g id="node2" class="node">
<title>User</title>
<ellipse fill="none" stroke="#000000" cx="259" cy="-199" rx="27.0966" ry="18"/>
<text text-anchor="middle" x="259" y="-195.3" font-family="Times,serif" font-size="14.00" fill="#000000">User</text>
</g>
<!-- User&#45;&gt;User -->
<g id="edge5" class="edge">
<title>User&#45;&gt;User</title>
<path fill="none" stroke="#0a9554" d="M295.359,-204.4259C300.6962,-203.5713 304.2976,-201.7627 304.2976,-199 304.2976,-196.2373 300.6962,-194.4287 295.359,-193.5741"/>
<polygon fill="#0a9554" stroke="#0a9554" points="295.0537,-204.4418 284.8326,-200.4695 290.0605,-204.7026 285.0673,-204.9634 285.0673,-204.9634 285.0673,-204.9634 290.0605,-204.7026 285.3021,-209.4573 295.0537,-204.4418 295.0537,-204.4418"/>
<polygon fill="#0a9554" stroke="#0a9554" points="295.0537,-193.5582 285.3021,-188.5427 290.0605,-193.2974 285.0673,-193.0366 285.0673,-193.0366 285.0673,-193.0366 290.0605,-193.2974 284.8326,-197.5305 295.0537,-193.5582 295.0537,-193.5582"/>
<text text-anchor="middle" x="330.7976" y="-195.3" font-family="Times,serif" font-size="14.00" fill="#000000">following</text>
</g>
<!-- User&#45;&gt;User -->
<g id="edge6" class="edge">
<title>User&#45;&gt;User</title>
<path fill="none" stroke="#bc0b10" d="M292.8515,-209.5402C322.1873,-213.3037 357.2976,-209.7903 357.2976,-199 357.2976,-188.2097 322.1873,-184.6963 292.8515,-188.4598"/>
<polygon fill="#bc0b10" stroke="#bc0b10" points="292.6537,-209.5081 283.5041,-203.4637 287.7183,-208.7068 282.7829,-207.9055 282.7829,-207.9055 282.7829,-207.9055 287.7183,-208.7068 282.0618,-212.3474 292.6537,-209.5081 292.6537,-209.5081"/>
<polygon fill="#bc0b10" stroke="#bc0b10" points="292.6537,-188.4919 282.0618,-185.6526 287.7183,-189.2932 282.7829,-190.0945 282.7829,-190.0945 282.7829,-190.0945 287.7183,-189.2932 283.5041,-194.5363 292.6537,-188.4919 292.6537,-188.4919"/>
<text text-anchor="middle" x="383.2976" y="-195.3" font-family="Times,serif" font-size="14.00" fill="#000000">followers</text>
</g>
<!-- Relationship -->
<g id="node3" class="node">
<title>Relationship</title>
<ellipse fill="none" stroke="#000000" cx="125" cy="-91" rx="55.4913" ry="18"/>
<text text-anchor="middle" x="125" y="-87.3" font-family="Times,serif" font-size="14.00" fill="#000000">Relationship</text>
</g>
<!-- User&#45;&gt;Relationship -->
<g id="edge3" class="edge">
<title>User&#45;&gt;Relationship</title>
<path fill="none" stroke="#809a10" d="M242.8271,-176.1031C237.2659,-169.877 230.522,-163.8086 223,-160 191.0788,-143.8372 86.8441,-168.6769 63,-142 52.3418,-130.0755 63.6956,-118.5942 79.4695,-109.5546"/>
<ellipse fill="none" stroke="#809a10" cx="245.4228" cy="-179.2273" rx="4" ry="4"/>
<polygon fill="#809a10" stroke="#809a10" points="79.7127,-109.4276 90.6597,-108.7849 84.1442,-107.112 88.5758,-104.7965 88.5758,-104.7965 88.5758,-104.7965 84.1442,-107.112 86.4918,-100.8081 79.7127,-109.4276 79.7127,-109.4276"/>
<text text-anchor="middle" x="117.5" y="-130.8" font-family="Times,serif" font-size="14.00" fill="#000000">active_relationships</text>
</g>
<!-- User&#45;&gt;Relationship -->
<g id="edge4" class="edge">
<title>User&#45;&gt;Relationship</title>
<path fill="none" stroke="#a6c6b2" d="M240.5309,-176.5827C235.2042,-170.8142 229.1581,-164.8676 223,-160 210.1984,-149.8811 204.5561,-151.0832 191,-142 182.0621,-136.0112 180.4931,-133.6046 172,-127 166.5486,-122.7607 160.7213,-118.267 155.0908,-113.9443"/>
<ellipse fill="none" stroke="#a6c6b2" cx="243.3369" cy="-179.728" rx="4" ry="4"/>
<polygon fill="#a6c6b2" stroke="#a6c6b2" points="154.9872,-113.8649 149.786,-104.2109 151.0182,-110.824 147.0492,-107.783 147.0492,-107.783 147.0492,-107.783 151.0182,-110.824 144.3123,-111.3551 154.9872,-113.8649 154.9872,-113.8649"/>
<text text-anchor="middle" x="249" y="-130.8" font-family="Times,serif" font-size="14.00" fill="#000000">passive_relationships</text>
</g>
<!-- Image -->
<g id="node4" class="node">
<title>Image</title>
<ellipse fill="none" stroke="#000000" cx="294" cy="-91" rx="33.2948" ry="18"/>
<text text-anchor="middle" x="294" y="-87.3" font-family="Times,serif" font-size="14.00" fill="#000000">Image</text>
</g>
<!-- User&#45;&gt;Image -->
<g id="edge1" class="edge">
<title>User&#45;&gt;Image</title>
<path fill="none" stroke="#dae422" d="M283.3252,-179.7675C293.9814,-169.7818 305.3344,-156.6168 311,-142 314.0695,-134.0809 312.8087,-125.3476 309.9083,-117.3795"/>
<ellipse fill="none" stroke="#dae422" cx="280.1606" cy="-182.5993" rx="4" ry="4"/>
<polygon fill="#dae422" stroke="#dae422" points="309.8542,-117.2595 309.8393,-106.2936 307.7962,-112.7027 305.7382,-108.1458 305.7382,-108.1458 305.7382,-108.1458 307.7962,-112.7027 301.637,-109.998 309.8542,-117.2595 309.8542,-117.2595"/>
</g>
<!-- Like -->
<g id="node5" class="node">
<title>Like</title>
<ellipse fill="none" stroke="#000000" cx="324" cy="-18" rx="27" ry="18"/>
<text text-anchor="middle" x="324" y="-14.3" font-family="Times,serif" font-size="14.00" fill="#000000">Like</text>
</g>
<!-- User&#45;&gt;Like -->
<g id="edge2" class="edge">
<title>User&#45;&gt;Like</title>
<path fill="none" stroke="#959a73" d="M285.5885,-181.9468C299.4195,-171.8442 315.5702,-157.9175 326,-142 344.7513,-113.3827 339.4531,-72.515 332.7368,-45.6315"/>
<ellipse fill="none" stroke="#959a73" cx="282.2863" cy="-184.2817" rx="4" ry="4"/>
<polygon fill="#959a73" stroke="#959a73" points="332.6671,-45.3751 334.3822,-34.5442 331.3536,-40.5507 330.0402,-35.7263 330.0402,-35.7263 330.0402,-35.7263 331.3536,-40.5507 325.6982,-36.9084 332.6671,-45.3751 332.6671,-45.3751"/>
</g>
<!-- Image&#45;&gt;Like -->
<g id="edge7" class="edge">
<title>Image&#45;&gt;Like</title>
<path fill="none" stroke="#b4f12c" d="M304.4081,-65.6736C307.1565,-58.986 310.1324,-51.7445 312.9151,-44.9733"/>
<ellipse fill="none" stroke="#b4f12c" cx="302.7826" cy="-69.629" rx="4" ry="4"/>
<polygon fill="#b4f12c" stroke="#b4f12c" points="313.0035,-44.7579 320.9669,-37.2191 314.9041,-40.1332 316.8047,-35.5085 316.8047,-35.5085 316.8047,-35.5085 314.9041,-40.1332 312.6425,-33.798 313.0035,-44.7579 313.0035,-44.7579"/>
</g>
<!-- ApplicationRecord -->
<g id="node6" class="node">
<title>ApplicationRecord</title>
<ellipse fill="none" stroke="#000000" cx="523" cy="-199" rx="77.1866" ry="18"/>
<text text-anchor="middle" x="523" y="-195.3" font-family="Times,serif" font-size="14.00" fill="#000000">ApplicationRecord</text>
</g>
</g>
</svg>
